<svg width="1440" height="663" viewBox="0 0 1440 663" fill="none" xmlns="http://www.w3.org/2000/svg">
<circle cx="419" cy="595" r="199" fill="#CDDEFF"/>
<circle cx="151" cy="350" r="350" fill="#2469E9" fill-opacity="0.8"/>
<circle cx="1251.5" cy="514.5" r="265.5" fill="#2469E9" fill-opacity="0.8"/>
<path d="M220 319C220 428.905 130.905 518 21 518C-88.9047 518 -178 428.905 -178 319C-178 209.095 -88.9047 120 21 120C130.905 120 220 209.095 220 319Z" fill="#194AA4"/>
<path d="M1114 583C1114 724.385 999.385 839 858 839C716.615 839 602 724.385 602 583C602 441.615 716.615 327 858 327C999.385 327 1114 441.615 1114 583Z" fill="#194AA4" fill-opacity="0.7"/>
<circle opacity="0.9" cx="1327.5" cy="280.5" r="142.5" fill="#CDDEFF"/>
</svg>
