<svg id="visual" viewBox="0 0 960 300" width="960" height="300" xmlns="http://www.w3.org/2000/svg" xmlns:xlink="http://www.w3.org/1999/xlink" version="1.1"><rect x="0" y="0" width="960" height="300" fill="#FBFBFB"></rect><path d="M0 107L17.8 105.3C35.7 103.7 71.3 100.3 106.8 98.8C142.3 97.3 177.7 97.7 213.2 97.2C248.7 96.7 284.3 95.3 320 95.8C355.7 96.3 391.3 98.7 426.8 101.2C462.3 103.7 497.7 106.3 533.2 103C568.7 99.7 604.3 90.3 640 90.8C675.7 91.3 711.3 101.7 746.8 100.3C782.3 99 817.7 86 853.2 81C888.7 76 924.3 79 942.2 80.5L960 82L960 0L942.2 0C924.3 0 888.7 0 853.2 0C817.7 0 782.3 0 746.8 0C711.3 0 675.7 0 640 0C604.3 0 568.7 0 533.2 0C497.7 0 462.3 0 426.8 0C391.3 0 355.7 0 320 0C284.3 0 248.7 0 213.2 0C177.7 0 142.3 0 106.8 0C71.3 0 35.7 0 17.8 0L0 0Z" fill="#194aa4"></path><path d="M0 72L17.8 70C35.7 68 71.3 64 106.8 61.7C142.3 59.3 177.7 58.7 213.2 61.2C248.7 63.7 284.3 69.3 320 74.8C355.7 80.3 391.3 85.7 426.8 82.7C462.3 79.7 497.7 68.3 533.2 65.2C568.7 62 604.3 67 640 66.7C675.7 66.3 711.3 60.7 746.8 61.7C782.3 62.7 817.7 70.3 853.2 71.2C888.7 72 924.3 66 942.2 63L960 60L960 0L942.2 0C924.3 0 888.7 0 853.2 0C817.7 0 782.3 0 746.8 0C711.3 0 675.7 0 640 0C604.3 0 568.7 0 533.2 0C497.7 0 462.3 0 426.8 0C391.3 0 355.7 0 320 0C284.3 0 248.7 0 213.2 0C177.7 0 142.3 0 106.8 0C71.3 0 35.7 0 17.8 0L0 0Z" fill="#4d6dbc"></path><path d="M0 64L17.8 63.2C35.7 62.3 71.3 60.7 106.8 60.3C142.3 60 177.7 61 213.2 63.2C248.7 65.3 284.3 68.7 320 65.3C355.7 62 391.3 52 426.8 48.8C462.3 45.7 497.7 49.3 533.2 49.3C568.7 49.3 604.3 45.7 640 44.7C675.7 43.7 711.3 45.3 746.8 46.2C782.3 47 817.7 47 853.2 51.3C888.7 55.7 924.3 64.3 942.2 68.7L960 73L960 0L942.2 0C924.3 0 888.7 0 853.2 0C817.7 0 782.3 0 746.8 0C711.3 0 675.7 0 640 0C604.3 0 568.7 0 533.2 0C497.7 0 462.3 0 426.8 0C391.3 0 355.7 0 320 0C284.3 0 248.7 0 213.2 0C177.7 0 142.3 0 106.8 0C71.3 0 35.7 0 17.8 0L0 0Z" fill="#7792d3"></path><path d="M0 46L17.8 46C35.7 46 71.3 46 106.8 42.8C142.3 39.7 177.7 33.3 213.2 33.8C248.7 34.3 284.3 41.7 320 43C355.7 44.3 391.3 39.7 426.8 40.3C462.3 41 497.7 47 533.2 47.3C568.7 47.7 604.3 42.3 640 41.8C675.7 41.3 711.3 45.7 746.8 46.7C782.3 47.7 817.7 45.3 853.2 42C888.7 38.7 924.3 34.3 942.2 32.2L960 30L960 0L942.2 0C924.3 0 888.7 0 853.2 0C817.7 0 782.3 0 746.8 0C711.3 0 675.7 0 640 0C604.3 0 568.7 0 533.2 0C497.7 0 462.3 0 426.8 0C391.3 0 355.7 0 320 0C284.3 0 248.7 0 213.2 0C177.7 0 142.3 0 106.8 0C71.3 0 35.7 0 17.8 0L0 0Z" fill="#a1b8e9"></path><path d="M0 25L17.8 24.2C35.7 23.3 71.3 21.7 106.8 22.2C142.3 22.7 177.7 25.3 213.2 25.3C248.7 25.3 284.3 22.7 320 20.8C355.7 19 391.3 18 426.8 19.3C462.3 20.7 497.7 24.3 533.2 25.3C568.7 26.3 604.3 24.7 640 24.2C675.7 23.7 711.3 24.3 746.8 23.8C782.3 23.3 817.7 21.7 853.2 21.5C888.7 21.3 924.3 22.7 942.2 23.3L960 24L960 0L942.2 0C924.3 0 888.7 0 853.2 0C817.7 0 782.3 0 746.8 0C711.3 0 675.7 0 640 0C604.3 0 568.7 0 533.2 0C497.7 0 462.3 0 426.8 0C391.3 0 355.7 0 320 0C284.3 0 248.7 0 213.2 0C177.7 0 142.3 0 106.8 0C71.3 0 35.7 0 17.8 0L0 0Z" fill="#cddeff"></path></svg>