<svg width="296" height="168" viewBox="0 0 296 168" fill="none" xmlns="http://www.w3.org/2000/svg">
<path d="M62.8962 150V107.088H48.7842V99.6H85.2162V107.088H70.6722V150H62.8962ZM99.8446 150V99.6H131.597V107.088H107.621V142.512H131.597V150H99.8446ZM103.373 127.896V120.408H127.637V127.896H103.373ZM169.559 150.72C166.055 150.72 162.839 150.096 159.911 148.848C156.983 147.6 154.439 145.824 152.279 143.52C150.119 141.168 148.439 138.408 147.239 135.24C146.087 132.072 145.511 128.592 145.511 124.8C145.511 121.2 146.135 117.864 147.383 114.792C148.679 111.672 150.455 108.936 152.711 106.584C154.967 104.232 157.583 102.408 160.559 101.112C163.535 99.816 166.751 99.168 170.207 99.168C172.655 99.168 175.031 99.552 177.335 100.32C179.687 101.04 181.799 102.072 183.671 103.416C185.591 104.712 187.151 106.2 188.351 107.88L183.167 113.28C181.103 111.168 178.991 109.584 176.831 108.528C174.671 107.472 172.463 106.944 170.207 106.944C167.855 106.944 165.647 107.4 163.583 108.312C161.567 109.176 159.791 110.4 158.255 111.984C156.767 113.568 155.591 115.464 154.727 117.672C153.863 119.832 153.431 122.208 153.431 124.8C153.431 127.536 153.839 130.032 154.655 132.288C155.519 134.496 156.719 136.392 158.255 137.976C159.791 139.56 161.615 140.784 163.727 141.648C165.887 142.464 168.263 142.872 170.855 142.872C172.439 142.872 173.999 142.656 175.535 142.224C177.071 141.792 178.511 141.168 179.855 140.352C181.199 139.536 182.423 138.576 183.527 137.472L187.415 143.808C186.311 145.104 184.799 146.28 182.879 147.336C181.007 148.392 178.895 149.232 176.543 149.856C174.239 150.432 171.911 150.72 169.559 150.72ZM235.922 150V99.6H243.698V150H235.922ZM203.018 150V99.6H210.794V150H203.018ZM206.402 128.616V121.128H239.378V128.616H206.402Z" fill="black"/>
<path d="M7.056 72V21.6H14.688L33.048 51.48L29.376 51.408L47.952 21.6H55.152V72H47.376V51.336C47.376 47.016 47.472 43.128 47.664 39.672C47.904 36.216 48.288 32.784 48.816 29.376L49.824 32.04L33.336 57.528H28.584L12.6 32.328L13.392 29.376C13.92 32.592 14.28 35.904 14.472 39.312C14.712 42.672 14.832 46.68 14.832 51.336V72H7.056ZM85.0506 72.72C81.1626 72.72 77.7066 71.904 74.6826 70.272C71.7066 68.592 69.3546 66.312 67.6266 63.432C65.9466 60.552 65.1066 57.24 65.1066 53.496C65.1066 50.52 65.5866 47.808 66.5466 45.36C67.5066 42.912 68.8266 40.8 70.5066 39.024C72.2346 37.2 74.2746 35.808 76.6266 34.848C79.0266 33.84 81.6186 33.336 84.4026 33.336C86.8506 33.336 89.1306 33.816 91.2426 34.776C93.3546 35.688 95.1786 36.96 96.7146 38.592C98.2986 40.224 99.4986 42.168 100.315 44.424C101.179 46.632 101.587 49.056 101.539 51.696L101.467 54.864H70.5786L68.9226 48.96H95.0586L93.9786 50.184V48.456C93.8346 46.872 93.3066 45.456 92.3946 44.208C91.4826 42.96 90.3306 41.976 88.9386 41.256C87.5466 40.536 86.0346 40.176 84.4026 40.176C81.8106 40.176 79.6266 40.68 77.8506 41.688C76.0746 42.648 74.7306 44.088 73.8186 46.008C72.9066 47.88 72.4506 50.208 72.4506 52.992C72.4506 55.632 73.0026 57.936 74.1066 59.904C75.2106 61.824 76.7706 63.312 78.7866 64.368C80.8026 65.424 83.1306 65.952 85.7706 65.952C87.6426 65.952 89.3706 65.64 90.9546 65.016C92.5866 64.392 94.3386 63.264 96.2106 61.632L99.9546 66.888C98.8026 68.04 97.3866 69.048 95.7066 69.912C94.0746 70.776 92.3226 71.472 90.4506 72C88.6266 72.48 86.8266 72.72 85.0506 72.72ZM125.366 72.72C121.91 72.72 118.814 71.88 116.078 70.2C113.39 68.472 111.254 66.144 109.67 63.216C108.086 60.24 107.294 56.856 107.294 53.064C107.294 49.272 108.062 45.912 109.598 42.984C111.182 40.008 113.318 37.68 116.006 36C118.694 34.272 121.742 33.408 125.15 33.408C127.022 33.408 128.822 33.72 130.55 34.344C132.326 34.92 133.91 35.736 135.302 36.792C136.694 37.8 137.774 38.928 138.542 40.176C139.358 41.376 139.766 42.6 139.766 43.848L137.606 43.992V18.72H145.022V72H137.606V63H139.046C139.046 64.152 138.662 65.304 137.894 66.456C137.126 67.56 136.094 68.592 134.798 69.552C133.55 70.512 132.086 71.28 130.406 71.856C128.774 72.432 127.094 72.72 125.366 72.72ZM126.374 66.312C128.63 66.312 130.622 65.736 132.35 64.584C134.078 63.432 135.422 61.872 136.382 59.904C137.39 57.888 137.894 55.608 137.894 53.064C137.894 50.52 137.39 48.264 136.382 46.296C135.422 44.28 134.078 42.696 132.35 41.544C130.622 40.392 128.63 39.816 126.374 39.816C124.118 39.816 122.126 40.392 120.398 41.544C118.67 42.696 117.302 44.28 116.294 46.296C115.334 48.264 114.854 50.52 114.854 53.064C114.854 55.608 115.334 57.888 116.294 59.904C117.302 61.872 118.67 63.432 120.398 64.584C122.126 65.736 124.118 66.312 126.374 66.312ZM157.103 72V21.6H164.879V72H157.103ZM160.559 50.544V43.056H186.551V50.544H160.559ZM160.559 29.088V21.6H189.791V29.088H160.559ZM236.363 72.72C232.475 72.72 229.019 71.904 225.995 70.272C223.019 68.592 220.667 66.312 218.939 63.432C217.259 60.552 216.419 57.24 216.419 53.496C216.419 50.52 216.899 47.808 217.859 45.36C218.819 42.912 220.139 40.8 221.819 39.024C223.547 37.2 225.587 35.808 227.939 34.848C230.339 33.84 232.931 33.336 235.715 33.336C238.163 33.336 240.443 33.816 242.555 34.776C244.667 35.688 246.491 36.96 248.027 38.592C249.611 40.224 250.811 42.168 251.627 44.424C252.491 46.632 252.899 49.056 252.851 51.696L252.779 54.864H221.891L220.235 48.96H246.371L245.291 50.184V48.456C245.147 46.872 244.619 45.456 243.707 44.208C242.795 42.96 241.643 41.976 240.251 41.256C238.859 40.536 237.347 40.176 235.715 40.176C233.123 40.176 230.939 40.68 229.163 41.688C227.387 42.648 226.043 44.088 225.131 46.008C224.219 47.88 223.763 50.208 223.763 52.992C223.763 55.632 224.315 57.936 225.419 59.904C226.523 61.824 228.083 63.312 230.099 64.368C232.115 65.424 234.443 65.952 237.083 65.952C238.955 65.952 240.683 65.64 242.267 65.016C243.899 64.392 245.651 63.264 247.523 61.632L251.267 66.888C250.115 68.04 248.699 69.048 247.019 69.912C245.387 70.776 243.635 71.472 241.763 72C239.939 72.48 238.139 72.72 236.363 72.72ZM285.828 72L273.588 56.088L272.508 54.72L256.596 34.2H265.956L277.98 49.896L279.204 51.48L294.9 72H285.828ZM256.668 72L271.572 52.56L275.964 57.816L265.452 72H256.668ZM279.636 53.712L275.532 48.528L284.82 34.2H293.604L279.636 53.712Z" fill="black"/>
<path d="M206.5 74C203.5 56.5 203.715 38.66 200.74 21C203.655 21 208.575 21 211.5 21C208.595 38.66 198.595 56.3267 195.5 74C198.375 74 203.655 74 206.5 74Z" fill="black"/>
</svg>
